<svg width="78" height="58" viewBox="0 0 78 58" fill="none" xmlns="http://www.w3.org/2000/svg">
<g clip-path="url(#clip0_83_9)">
<path d="M21.125 41.75H14.625C13.728 41.75 13 41.022 13 40.125C13 39.228 13.728 38.5 14.625 38.5H21.125C22.022 38.5 22.75 39.228 22.75 40.125C22.75 41.022 22.022 41.75 21.125 41.75Z" fill="#FD6A00"/>
<path d="M73.9375 41.75H69.875C68.978 41.75 68.25 41.022 68.25 40.125C68.25 39.228 68.978 38.5 69.875 38.5H72.5888L74.7793 26.826C74.75 20.8525 69.6475 15.75 63.375 15.75H52.7053L47.5345 38.5H56.875C57.772 38.5 58.5 39.228 58.5 40.125C58.5 41.022 57.772 41.75 56.875 41.75H45.5C45.006 41.75 44.538 41.5258 44.2293 41.139C43.9205 40.7555 43.8035 40.2485 43.914 39.7675L49.8225 13.7675C49.9915 13.0233 50.648 12.5 51.4085 12.5H63.375C71.4383 12.5 78 19.0618 78 27.125L75.5333 40.424C75.3903 41.1942 74.7208 41.75 73.9375 41.75Z" fill="#FD6A00"/>
<path d="M63.375 48.25C58.8965 48.25 55.25 44.6067 55.25 40.125C55.25 35.6432 58.8965 32 63.375 32C67.8535 32 71.5 35.6432 71.5 40.125C71.5 44.6067 67.8535 48.25 63.375 48.25ZM63.375 35.25C60.6873 35.25 58.5 37.4372 58.5 40.125C58.5 42.8127 60.6873 45 63.375 45C66.0628 45 68.25 42.8127 68.25 40.125C68.25 37.4372 66.0628 35.25 63.375 35.25Z" fill="#FD6A00"/>
<path d="M27.625 48.25C23.1465 48.25 19.5 44.6067 19.5 40.125C19.5 35.6432 23.1465 32 27.625 32C32.1035 32 35.75 35.6432 35.75 40.125C35.75 44.6067 32.1035 48.25 27.625 48.25ZM27.625 35.25C24.9373 35.25 22.75 37.4372 22.75 40.125C22.75 42.8127 24.9373 45 27.625 45C30.3128 45 32.5 42.8127 32.5 40.125C32.5 37.4372 30.3128 35.25 27.625 35.25Z" fill="#FD6A00"/>
<path d="M21.125 12.5H8.125C7.228 12.5 6.5 11.772 6.5 10.875C6.5 9.978 7.228 9.25 8.125 9.25H21.125C22.022 9.25 22.75 9.978 22.75 10.875C22.75 11.772 22.022 12.5 21.125 12.5Z" fill="#FD6A00"/>
<path d="M21.125 22.25H4.875C3.978 22.25 3.25 21.522 3.25 20.625C3.25 19.728 3.978 19 4.875 19H21.125C22.022 19 22.75 19.728 22.75 20.625C22.75 21.522 22.022 22.25 21.125 22.25Z" fill="#FD6A00"/>
<path d="M21.125 32H1.625C0.728 32 0 31.272 0 30.375C0 29.478 0.728 28.75 1.625 28.75H21.125C22.022 28.75 22.75 29.478 22.75 30.375C22.75 31.272 22.022 32 21.125 32Z" fill="#FD6A00"/>
<path d="M45.5 41.75H34.125C33.228 41.75 32.5 41.022 32.5 40.125C32.5 39.228 33.228 38.5 34.125 38.5H44.2032L51.5872 6H14.625C13.728 6 13 5.272 13 4.375C13 3.478 13.728 2.75 14.625 2.75H53.625C54.119 2.75 54.587 2.97425 54.8957 3.361C55.2045 3.7445 55.3215 4.2515 55.211 4.7325L47.086 40.4825C46.917 41.2268 46.2572 41.75 45.5 41.75Z" fill="#FD6A00"/>
</g>
<defs>
<clipPath id="clip0_83_9">
<rect width="78" height="58" fill="white"/>
</clipPath>
</defs>
</svg>
