<svg width="53" height="47" viewBox="0 0 53 47" fill="none" xmlns="http://www.w3.org/2000/svg">
<path d="M37.6907 13.8681H22.2933C17.2107 13.8681 13.072 17.9646 13.072 23.0051V25.4802H12.1176C11.5729 25.4802 11.059 25.6909 10.673 26.0732L10.6729 26.0732L7.01757 29.6942V26.2267C7.01757 25.514 6.63307 24.8471 6.0154 24.4834C3.84505 23.2051 2.49755 20.8603 2.49755 18.3668V10.1671C2.49755 6.24709 5.71798 3.05355 9.68094 3.05355H30.5074C31.4367 3.05355 32.3396 3.22623 33.192 3.56673L33.1922 3.56678C33.712 3.77411 34.3058 3.52608 34.517 3.00717L34.2855 2.91292L34.5171 3.00715C34.7287 2.48704 34.4738 1.89759 33.9526 1.68944C32.857 1.25181 31.6975 1.03012 30.5074 1.03012H9.68094C4.59832 1.03012 0.459671 5.1265 0.459671 10.1671V18.3668C0.459671 21.5739 2.19059 24.5833 4.97567 26.2236C4.9763 26.224 4.97686 26.2244 4.97735 26.2248C4.9783 26.2256 4.979 26.2265 4.97945 26.2273C4.97956 26.2275 4.97964 26.2276 4.97969 26.2278V30.6616C4.97969 31.3184 5.37468 31.9045 5.98306 32.1571C6.21075 32.2634 6.52348 32.2983 6.83354 32.2534C7.15101 32.2074 7.4935 32.0739 7.76602 31.8112L7.76603 31.8112L7.76846 31.8088L12.1122 27.5058C12.1133 27.5047 12.114 27.5044 12.1143 27.5042C12.1147 27.5041 12.1156 27.5038 12.1176 27.5038H13.072V31.2048C13.072 32.4378 13.3161 33.6351 13.7974 34.7625L14.0273 34.6643L13.7974 34.7625C14.0174 35.2778 14.6153 35.5156 15.1315 35.2998L15.1317 35.2997C15.6494 35.0828 15.8941 34.4892 15.6738 33.9727L15.6737 33.9727C15.2997 33.0967 15.11 32.1659 15.11 31.2049V23.0052C15.11 19.0851 18.3304 15.8916 22.2934 15.8916H43.2223C47.1852 15.8916 50.4057 19.0851 50.4057 23.0052V31.2049C50.4057 33.7092 49.114 35.982 46.9462 37.2866L47.0751 37.5008L46.9462 37.2866C46.3427 37.6498 45.9684 38.3115 45.9684 39.0154V43.384L41.4533 38.9112C41.0674 38.5289 40.5534 38.3183 40.0086 38.3183H22.2933C20.4897 38.3183 18.766 37.6539 17.4386 36.448L17.4386 36.448C17.0243 36.0718 16.3811 36.099 16.0006 36.5097L16.0005 36.5098C15.6189 36.922 15.6471 37.5632 16.0628 37.9409C17.7671 39.4893 19.98 40.3418 22.2932 40.3418H40.0084C40.0088 40.3418 40.01 40.3419 40.0115 40.3426C40.013 40.3432 40.0137 40.3438 40.0135 40.3437L40.0137 40.3438L45.2173 45.4985L45.2289 45.51L45.2418 45.5198C45.4459 45.6752 45.6765 45.8365 45.9629 45.9169C46.2571 45.9994 46.5861 45.9908 46.9828 45.8545L46.9897 45.8521L46.9965 45.8493C47.6083 45.5982 48.006 45.0103 48.006 44.3513V39.0153C48.006 39.0151 48.006 39.0149 48.006 39.0147C50.7833 37.3416 52.4435 34.4217 52.4435 31.2048V23.0051C52.4435 17.9646 48.3049 13.8681 43.2223 13.8681H39.7286V10.1671C39.7286 7.8388 38.8441 5.62059 37.2389 3.92236C36.8542 3.51535 36.2106 3.4947 35.8002 3.87547C35.3885 4.25745 35.367 4.89894 35.7529 5.30707C37.0029 6.62959 37.6907 8.3552 37.6907 10.1671V13.8681ZM48.0022 39.0169L48.0023 39.0169L48.0022 39.0169Z" fill="#FD6A00" stroke="#FD6A00" stroke-width="0.5"/>
<path d="M32.7185 32.23C32.3073 31.6974 31.5582 31.3402 30.7039 31.3402C29.4084 31.3402 28.3546 32.1611 28.3546 33.1702C28.3546 34.1791 29.4085 35 30.7039 35C31.8406 35 32.791 34.3679 33.007 33.5313C34.0413 33.1319 34.8556 32.3361 35.209 31.3292C36.2331 31.1155 37 30.2745 37 29.2717V26.9537C37 25.9857 36.2853 25.1684 35.3144 24.9206C35.0859 23.6294 34.3937 22.4447 33.3327 21.5493C32.1488 20.5502 30.6101 20 29 20C25.8317 20 23.1817 22.0921 22.685 24.9206C21.7144 25.1686 21 25.9858 21 26.9536V29.2717C21 30.4355 22.0328 31.3823 23.3023 31.3823C24.5718 31.3823 25.6046 30.4355 25.6046 29.2717V26.9536C25.6046 26.0461 24.9765 25.2706 24.098 24.973C24.5527 22.8432 26.5835 21.2857 29 21.2857C31.3858 21.2857 33.4423 22.8705 33.9001 24.9737C33.0226 25.2717 32.3954 26.0467 32.3954 26.9536V29.2717C32.3954 30.1295 32.9568 30.8689 33.7603 31.1987C33.5374 31.6378 33.1707 31.9965 32.7185 32.23ZM30.7039 33.7144C30.1459 33.7144 29.7571 33.4277 29.7571 33.1702C29.7571 32.9128 30.1459 32.626 30.7039 32.626C31.2618 32.626 31.6507 32.9128 31.6507 33.1702C31.6507 33.4277 31.2618 33.7144 30.7039 33.7144ZM24.2021 29.2718C24.2021 29.7267 23.7985 30.0968 23.3023 30.0968C22.8061 30.0968 22.4024 29.7267 22.4024 29.2718V26.9537C22.4024 26.4989 22.8061 26.1288 23.3023 26.1288C23.7985 26.1288 24.2021 26.4989 24.2021 26.9537V29.2718ZM33.7979 26.9537C33.7979 26.4989 34.2015 26.1288 34.6977 26.1288C35.1939 26.1288 35.5976 26.4989 35.5976 26.9537V29.2718C35.5976 29.7267 35.1939 30.0968 34.6977 30.0968C34.2015 30.0968 33.7979 29.7267 33.7979 29.2718V26.9537Z" fill="#FD6A00" stroke="#FD6A00" stroke-width="0.4"/>
<path d="M38.7024 24H44.2976C44.6855 24 45 23.5524 45 23C45 22.4476 44.6855 22 44.2976 22H38.7024C38.3145 22 38 22.4476 38 23C38 23.5524 38.3145 24 38.7024 24Z" fill="#FD6A00" stroke="#FD6A00" stroke-width="0.4"/>
<path d="M38.6141 27H42.3859C42.725 27 43 26.5524 43 26C43 25.4476 42.725 25 42.3859 25H38.6141C38.275 25 38 25.4476 38 26C38 26.5524 38.275 27 38.6141 27Z" fill="#FD6A00" stroke="#FD6A00" stroke-width="0.4"/>
<path d="M8.27469 12.379C8.90784 12.379 9.42111 11.8705 9.42111 11.2433C9.42111 10.6161 8.90784 10.1077 8.27469 10.1077C7.64154 10.1077 7.12827 10.6161 7.12827 11.2433C7.12827 11.8705 7.64154 12.379 8.27469 12.379Z" fill="#FD6A00"/>
<path d="M11.7468 12.379C12.38 12.379 12.8932 11.8705 12.8932 11.2433C12.8932 10.6161 12.38 10.1077 11.7468 10.1077C11.1137 10.1077 10.6004 10.6161 10.6004 11.2433C10.6004 11.8705 11.1137 12.379 11.7468 12.379Z" fill="#FD6A00"/>
<path d="M15.1986 12.379C15.8317 12.379 16.345 11.8705 16.345 11.2433C16.345 10.6161 15.8317 10.1077 15.1986 10.1077C14.5654 10.1077 14.0522 10.6161 14.0522 11.2433C14.0522 11.8705 14.5654 12.379 15.1986 12.379Z" fill="#FD6A00"/>
</svg>
