<svg width="47" height="47" viewBox="0 0 47 47" fill="none" xmlns="http://www.w3.org/2000/svg">
<g clip-path="url(#clip0_1033_108)">
<path d="M46.9855 20.8638V20.8634C46.9087 20.1312 46.5294 19.4564 45.9449 19.0092L43.2698 16.9266L44.2753 13.6089C44.4897 12.9011 44.4008 12.1276 44.0311 11.4865C43.6611 10.8457 43.0357 10.3821 42.3153 10.2135L38.95 9.42787L38.5204 5.9991C38.4283 5.26472 38.0324 4.59417 37.4343 4.16029C36.8354 3.72461 36.0749 3.555 35.3488 3.69485L31.9548 4.34568L30.1672 1.38773C29.4558 0.210501 27.9619 -0.234142 26.6933 0.352499C26.604 0.393736 26.5179 0.443221 26.443 0.496291L23.4972 2.5481L20.6612 0.572669C20.0541 0.150259 19.2914 -0.00357343 18.5678 0.1499C17.8442 0.303373 17.2095 0.755188 16.8269 1.38844L15.0401 4.34604L11.6457 3.69485C10.9189 3.55572 10.159 3.72533 9.56127 4.15993C8.96244 4.59489 8.56657 5.26544 8.47477 5.9991L8.04519 9.42823L4.4859 10.2591L4.3188 10.3136L4.25712 10.3405C2.96407 10.9059 2.31719 12.2808 2.71952 13.6089L3.72462 16.9266L0.934851 19.0967L0.77313 19.2373L0.72759 19.2871C-0.20867 20.3098 -0.245245 21.8567 0.640454 22.8909L2.82458 25.5028L1.05426 28.7153L0.983618 28.876L0.963179 28.9359C0.521763 30.2551 1.12311 31.6887 2.36165 32.27L5.48993 33.738L5.19696 37.1811C5.13421 37.9187 5.38235 38.657 5.8772 39.2064C6.37204 39.7561 7.08024 40.0799 7.82036 40.0949L11.2753 40.1638L12.4084 43.428C12.6508 44.1272 13.1776 44.7009 13.8532 45.0014C14.5287 45.3023 15.3072 45.3102 15.9899 45.0229L19.1745 43.6808L21.6742 46.3483L21.8051 46.4648L21.8556 46.5025C22.3494 46.8671 22.9264 47.0457 23.4979 47.0457C24.2212 47.0457 24.9355 46.7596 25.458 46.202L27.821 43.6808L31.006 45.0233C31.6873 45.3102 32.4654 45.3023 33.141 45.0018C33.8172 44.7009 34.344 44.1272 34.5864 43.4283L35.7199 40.1638L39.3746 40.091L39.5481 40.072L39.6105 40.0594C40.9731 39.7815 41.9137 38.5441 41.7979 37.1815L41.5053 33.738L44.6339 32.27C45.3034 31.9558 45.8186 31.3721 46.0474 30.6682C46.2758 29.9646 46.2023 29.1894 45.8452 28.5414L44.1706 25.5028L46.3551 22.8909C46.8324 22.3333 47.0622 21.5953 46.9855 20.8638ZM41.5655 24.3216C41.1327 24.8326 41.0588 25.5673 41.3826 26.1543L43.3953 29.8068L39.6198 31.5786C39.0077 31.8662 38.6352 32.512 38.6922 33.1858L39.0454 37.341L34.8758 37.4242C34.1999 37.4378 33.5964 37.876 33.3748 38.515L32.0071 42.4548L28.1645 40.8351C27.5413 40.5726 26.812 40.7271 26.349 41.2209L23.4972 44.2638L20.6454 41.2205C20.3331 40.8871 19.8989 40.7085 19.4578 40.7085C19.2459 40.7085 19.0325 40.7497 18.8306 40.8351L14.9873 42.4548L13.6201 38.5161C13.3988 37.8768 12.7953 37.4378 12.1187 37.4242L7.94873 37.341L8.30193 33.1858C8.35931 32.512 7.98638 31.8662 7.37428 31.5786L3.59912 29.8068L5.61185 26.1547C5.936 25.567 5.86178 24.8326 5.42861 24.3212L2.7794 21.1532L6.02529 18.628C6.55671 18.2182 6.78262 17.5139 6.58755 16.872L5.37841 12.881L9.44007 11.9322C10.0981 11.7784 10.5969 11.2247 10.6815 10.5535L11.2 6.41542L15.2964 7.20107C15.9605 7.32801 16.6411 7.02465 16.9911 6.44625L19.1476 2.87692L22.5696 5.26006C23.1247 5.64662 23.8705 5.64697 24.4252 5.26006L27.8472 2.87656L30.0041 6.44518C30.3533 7.02429 31.0354 7.32801 31.6995 7.20071L35.7952 6.41506L36.3137 10.5527C36.3976 11.2237 36.8964 11.778 37.5555 11.9322L41.6168 12.8807L40.4073 16.8717C40.2126 17.515 40.4388 18.2189 40.9702 18.6284L44.2147 21.1546L41.5655 24.3216Z" fill="#FD6A00"/>
<path d="M23.6435 11.8676C17.1901 11.8676 11.9397 17.1176 11.9397 23.5713C11.9397 30.0248 17.1901 35.2751 23.6435 35.2751C30.0973 35.2751 35.3476 30.0248 35.3476 23.5713C35.3476 17.1176 30.0969 11.8676 23.6435 11.8676ZM23.6435 32.5191C18.7097 32.5191 14.6954 28.5051 14.6954 23.5713C14.6954 18.6372 18.7097 14.6233 23.6435 14.6233C28.5776 14.6233 32.5916 18.6372 32.5916 23.5713C32.5916 28.5051 28.5776 32.5191 23.6435 32.5191Z" fill="#FD6A00"/>
<path d="M27.0078 19.9375L21.5713 25.3736L20.0961 23.898C19.5579 23.3602 18.6854 23.3602 18.1476 23.898C17.6093 24.4363 17.6093 25.3087 18.1476 25.8469L20.597 28.2964C20.866 28.5657 21.2188 28.7002 21.5713 28.7002C21.9238 28.7002 22.2766 28.5657 22.5456 28.2964L28.9563 21.886C29.4942 21.3478 29.4942 20.4754 28.9563 19.9375C28.4181 19.3993 27.5457 19.3993 27.0078 19.9375Z" fill="#FD6A00"/>
</g>
<defs>
<clipPath id="clip0_1033_108">
<rect width="47" height="47" fill="white"/>
</clipPath>
</defs>
</svg>
