<svg width="50" height="49" viewBox="0 0 50 49" fill="none" xmlns="http://www.w3.org/2000/svg">
<g clip-path="url(#clip0_84_2)">
<path d="M44.7812 7.09375H42.8125V5.21875C42.8125 2.89253 40.92 1 38.5938 1H5.21875C2.89253 1 1 2.89253 1 5.21875V28C1 30.3262 2.89253 32.2188 5.21875 32.2188H7.1875V34.0938C7.1875 36.42 9.08003 38.3125 11.4062 38.3125H25.8739C27.3647 43.2039 31.2743 47.3936 36.7074 48.9459C36.9594 49.0179 37.2272 49.0182 37.4801 48.9459C44.2224 47.0195 49 40.8538 49 33.6737C49 32.757 49 12.3449 49 11.3125C49 8.98628 47.1075 7.09375 44.7812 7.09375ZM46.1875 11.3125V15.3438H26.4062V13.75C26.4062 12.9734 25.7766 12.3438 25 12.3438H14.5C13.7234 12.3438 13.0938 12.9734 13.0938 13.75V15.3438H10V11.3125C10 10.5371 10.6308 9.90625 11.4062 9.90625H44.7812C45.5567 9.90625 46.1875 10.5371 46.1875 11.3125ZM15.9062 15.1562H23.5938V18.3438H15.9062V15.1562ZM5.21875 29.4062C4.44334 29.4062 3.8125 28.7754 3.8125 28V5.21875C3.8125 4.44334 4.44334 3.8125 5.21875 3.8125H38.5938C39.3692 3.8125 40 4.44334 40 5.21875V7.09375H11.4062C9.08003 7.09375 7.1875 8.98628 7.1875 11.3125V29.4062H5.21875ZM11.4062 35.5C10.6308 35.5 10 34.8692 10 34.0938V18.1562H13.0938V19.75C13.0938 20.5266 13.7234 21.1562 14.5 21.1562H25C25.7766 21.1562 26.4062 20.5266 26.4062 19.75V18.1562H46.1875V24.3828C43.1891 24.1241 40.3187 22.9507 37.994 21.0135C37.4726 20.5789 36.715 20.5789 36.1936 21.0135C33.6239 23.1548 30.3353 24.4375 26.5938 24.4375C25.8171 24.4375 25.1875 25.0671 25.1875 25.8438V29.5938H23.5938C22.8171 29.5938 22.1875 30.2234 22.1875 31C22.1875 31.7766 22.8171 32.4062 23.5938 32.4062H25.1875C25.1875 33.7163 25.1669 34.4063 25.2913 35.5H11.4062ZM46.1875 33.6737C46.1875 39.3437 42.4681 44.4062 37.0938 46.1248C31.7194 44.4063 28 39.3438 28 33.6737V27.2043C31.2774 26.9669 34.4364 25.8111 37.0938 23.8757C39.7511 25.8111 42.9101 26.9669 46.1875 27.2043V33.6737Z" fill="#FD6A00"/>
<path d="M17.5938 29.5938H14.5938C13.8171 29.5938 13.1875 30.2234 13.1875 31C13.1875 31.7766 13.8171 32.4062 14.5938 32.4062H17.5938C18.3704 32.4062 19 31.7766 19 31C19 30.2234 18.3704 29.5938 17.5938 29.5938Z" fill="#FD6A00"/>
<path d="M35.0881 33.1932C34.539 32.6441 33.6485 32.6441 33.0993 33.1932C32.5501 33.7423 32.5501 34.6327 33.0993 35.1819L36.0993 38.1819C36.6485 38.7311 37.5389 38.7311 38.088 38.1819L43.9005 32.3694C44.4497 31.8203 44.4497 30.9299 43.9005 30.3807C43.3515 29.8316 42.461 29.8316 41.9118 30.3807L37.0937 35.1988L35.0881 33.1932Z" fill="#FD6A00"/>
</g>
<defs>
<clipPath id="clip0_84_2">
<rect width="50" height="49" fill="white"/>
</clipPath>
</defs>
</svg>
