<svg width="37" height="27" viewBox="0 0 37 27" fill="none" xmlns="http://www.w3.org/2000/svg">
<rect width="37" height="27" rx="3" fill="white"/>
<path d="M8.513 14.156H10.934V14.903H8.513V14.156ZM13.8071 10.7V17H12.9161V11.483H11.4941V10.7H13.8071ZM17.8942 17.072C17.3962 17.072 16.9522 16.946 16.5622 16.694C16.1782 16.436 15.8752 16.064 15.6532 15.578C15.4312 15.092 15.3202 14.516 15.3202 13.85C15.3202 13.184 15.4312 12.608 15.6532 12.122C15.8752 11.636 16.1782 11.267 16.5622 11.015C16.9522 10.757 17.3962 10.628 17.8942 10.628C18.3862 10.628 18.8242 10.757 19.2082 11.015C19.5982 11.267 19.9042 11.636 20.1262 12.122C20.3482 12.608 20.4592 13.184 20.4592 13.85C20.4592 14.516 20.3482 15.092 20.1262 15.578C19.9042 16.064 19.5982 16.436 19.2082 16.694C18.8242 16.946 18.3862 17.072 17.8942 17.072ZM17.8942 16.271C18.3982 16.271 18.8002 16.064 19.1002 15.65C19.4062 15.236 19.5592 14.636 19.5592 13.85C19.5592 13.064 19.4062 12.464 19.1002 12.05C18.8002 11.636 18.3982 11.429 17.8942 11.429C17.3842 11.429 16.9762 11.636 16.6702 12.05C16.3702 12.464 16.2202 13.064 16.2202 13.85C16.2202 14.636 16.3702 15.236 16.6702 15.65C16.9762 16.064 17.3842 16.271 17.8942 16.271ZM22.8261 14.084C22.3881 14.084 22.0341 13.925 21.7641 13.607C21.4941 13.289 21.3591 12.875 21.3591 12.365C21.3591 11.855 21.4941 11.441 21.7641 11.123C22.0341 10.805 22.3881 10.646 22.8261 10.646C23.2641 10.646 23.6151 10.805 23.8791 11.123C24.1491 11.435 24.2841 11.849 24.2841 12.365C24.2841 12.881 24.1491 13.298 23.8791 13.616C23.6151 13.928 23.2641 14.084 22.8261 14.084ZM26.6241 10.7H27.3171L23.0151 17H22.3221L26.6241 10.7ZM22.8261 13.571C23.1021 13.571 23.3181 13.466 23.4741 13.256C23.6301 13.04 23.7081 12.743 23.7081 12.365C23.7081 11.987 23.6301 11.693 23.4741 11.483C23.3181 11.267 23.1021 11.159 22.8261 11.159C22.5561 11.159 22.3401 11.267 22.1781 11.483C22.0221 11.699 21.9441 11.993 21.9441 12.365C21.9441 12.737 22.0221 13.031 22.1781 13.247C22.3401 13.463 22.5561 13.571 22.8261 13.571ZM26.8131 17.054C26.3751 17.054 26.0211 16.898 25.7511 16.586C25.4871 16.268 25.3551 15.851 25.3551 15.335C25.3551 14.819 25.4871 14.405 25.7511 14.093C26.0211 13.775 26.3751 13.616 26.8131 13.616C27.2511 13.616 27.6051 13.775 27.8751 14.093C28.1451 14.411 28.2801 14.825 28.2801 15.335C28.2801 15.845 28.1451 16.259 27.8751 16.577C27.6051 16.895 27.2511 17.054 26.8131 17.054ZM26.8131 16.541C27.0831 16.541 27.2961 16.433 27.4521 16.217C27.6141 16.001 27.6951 15.707 27.6951 15.335C27.6951 14.963 27.6141 14.669 27.4521 14.453C27.2961 14.237 27.0831 14.129 26.8131 14.129C26.5371 14.129 26.3211 14.237 26.1651 14.453C26.0091 14.663 25.9311 14.957 25.9311 15.335C25.9311 15.713 26.0091 16.01 26.1651 16.226C26.3211 16.436 26.5371 16.541 26.8131 16.541Z" fill="#12111E"/>
<rect x="0.75" y="0.75" width="35.5" height="25.5" rx="2.25" stroke="#D6E6F3" stroke-opacity="0.81" stroke-width="1.5"/>
</svg>
