<svg width="171" height="73" viewBox="0 0 171 73" fill="none" xmlns="http://www.w3.org/2000/svg">
<path d="M40.4412 42.5261C40.2111 47.1056 38.4282 50.3306 35.4131 51.6182C33.0825 52.6203 30.5334 52.2154 29.4206 51.254C27.8067 49.8615 27.0288 46.558 28.4592 44.3789C30.1605 41.757 36.6162 40.0411 38.9759 39.5983C39.1597 39.5642 39.3487 39.5708 39.5296 39.6178C39.7105 39.6648 39.8789 39.7509 40.0228 39.8701C40.1668 39.9893 40.2828 40.1387 40.3626 40.3077C40.4425 40.4767 40.4842 40.6612 40.4849 40.8481C40.4811 41.388 40.4665 41.9473 40.4412 42.5261Z" fill="#32A0D1"/>
<path d="M40.1412 36.9706C40.1719 37.1468 40.1616 37.3276 40.1112 37.4991C40.0608 37.6707 39.9715 37.8283 39.8504 37.9598C39.7293 38.0914 39.5796 38.1933 39.4128 38.2576C39.246 38.322 39.0666 38.3471 38.8885 38.3311C38.7545 38.3311 25.5489 37.1658 22.4114 30.9403C21.1384 28.4174 20.4188 24.8983 20.0168 22.0171C19.9714 21.6906 20.0184 21.358 20.1524 21.0568C20.2864 20.7556 20.5021 20.4979 20.7749 20.313C21.0478 20.1281 21.367 20.0232 21.6964 20.0103C22.0258 19.9974 22.3522 20.077 22.6387 20.2401C25.782 22.0259 29.7381 24.2836 31.422 25.2916C35.2703 27.5697 39.0196 30.3984 40.1412 36.9706Z" fill="#32A0D1"/>
<path d="M59.782 20.2314C60.0687 20.0681 60.3955 19.9884 60.7251 20.0014C61.0548 20.0143 61.3743 20.1195 61.6473 20.3048C61.9203 20.4901 62.1359 20.7482 62.2696 21.0499C62.4033 21.3515 62.4499 21.6846 62.4039 22.0113C62.0019 24.8896 61.2823 28.4204 60.0151 30.9257C56.8746 37.1483 43.6632 38.3078 43.5351 38.3165C43.3567 38.3327 43.177 38.3075 43.01 38.243C42.8429 38.1785 42.693 38.0763 42.5718 37.9444C42.4506 37.8125 42.3615 37.6545 42.3113 37.4826C42.2611 37.3107 42.2512 37.1295 42.2824 36.9532C43.4069 30.3984 47.1562 27.5697 51.0016 25.277C52.6854 24.272 56.6387 22.0142 59.782 20.2314Z" fill="#32A0D1"/>
<path d="M53.003 51.2453C51.8931 52.2067 49.3469 52.6116 47.0047 51.6095C43.9896 50.3218 42.2125 47.0969 41.9824 42.5173C41.9532 41.9347 41.9387 41.3783 41.9387 40.8364C41.9393 40.6499 41.981 40.4658 42.0607 40.2972C42.1404 40.1285 42.2562 39.9794 42.3999 39.8605C42.5436 39.7415 42.7116 39.6556 42.8922 39.6088C43.0728 39.562 43.2614 39.5554 43.4448 39.5896C45.7928 40.0324 52.2631 41.7512 53.9644 44.3701C55.3948 46.558 54.6169 49.8615 53.003 51.2453Z" fill="#243065"/>
<path d="M81.1242 30.6052C81.2166 30.606 81.308 30.625 81.3931 30.6612C81.4782 30.6974 81.5553 30.75 81.62 30.816C81.6847 30.8821 81.7357 30.9602 81.7701 31.046C81.8045 31.1319 81.8216 31.2236 81.8204 31.3161V45.5704C81.8233 45.6626 81.8072 45.7544 81.7732 45.8401C81.7392 45.9259 81.688 46.0038 81.6228 46.069C81.5576 46.1342 81.4797 46.1854 81.3939 46.2194C81.3082 46.2534 81.2164 46.2695 81.1242 46.2666C80.934 46.2701 80.7499 46.199 80.6115 46.0685C80.4813 45.9355 80.4091 45.7565 80.4104 45.5704V43.2223C79.0509 45.2538 77.2593 46.2686 75.0356 46.2666C73.1575 46.2666 71.5592 45.5034 70.2404 43.9769C68.9119 42.4435 68.2025 40.47 68.2507 38.4418V31.2724C68.2502 31.1792 68.2689 31.0869 68.3054 31.0013C68.342 30.9156 68.3958 30.8383 68.4634 30.7742C68.5278 30.7071 68.6052 30.6536 68.6908 30.6171C68.7764 30.5806 68.8685 30.5618 68.9615 30.5618C69.0546 30.5618 69.1467 30.5806 69.2323 30.6171C69.3179 30.6536 69.3953 30.7071 69.4597 30.7742C69.5273 30.8383 69.5811 30.9156 69.6176 31.0013C69.6542 31.0869 69.6728 31.1792 69.6724 31.2724V38.4418C69.629 40.092 70.1906 41.7011 71.2513 42.966C72.2943 44.2284 73.5566 44.8586 75.0385 44.8566C76.5203 44.8547 77.7827 44.2245 78.8257 42.966C79.8876 41.7018 80.4493 40.0922 80.4046 38.4418V31.3161C80.4023 31.2237 80.4189 31.1318 80.4535 31.0462C80.4881 30.9605 80.5398 30.8828 80.6056 30.8179C80.6726 30.7485 80.7533 30.6937 80.8426 30.6571C80.9318 30.6205 81.0277 30.6028 81.1242 30.6052Z" fill="#D6E6F3"/>
<path d="M92.4041 30.5616C93.4221 30.5483 94.4318 30.7462 95.3695 31.1428C96.3071 31.5394 97.1523 32.1262 97.8518 32.8659C99.2922 34.3537 100.098 36.3433 100.098 38.4141C100.098 40.4849 99.2922 42.4746 97.8518 43.9623C97.1523 44.7021 96.3071 45.2889 95.3695 45.6855C94.4318 46.0821 93.4221 46.28 92.4041 46.2667C89.7473 46.2667 87.6507 45.1616 86.1145 42.9515V45.5559C86.115 45.649 86.0963 45.7413 86.0598 45.827C86.0232 45.9127 85.9694 45.9899 85.9018 46.054C85.8387 46.1229 85.7617 46.1775 85.6757 46.2142C85.5898 46.2509 85.4971 46.2688 85.4037 46.2667C85.3103 46.2682 85.2178 46.2501 85.1319 46.2134C85.0461 46.1768 84.9689 46.1225 84.9055 46.054C84.8384 45.9895 84.785 45.9122 84.7485 45.8266C84.712 45.741 84.693 45.6489 84.6928 45.5559V25.4839C84.6913 25.3906 84.7094 25.298 84.7461 25.2121C84.7827 25.1263 84.8371 25.0492 84.9055 24.9857C84.9686 24.9168 85.0457 24.8622 85.1316 24.8255C85.2175 24.7889 85.3103 24.771 85.4037 24.7731C85.4971 24.7704 85.5901 24.788 85.6761 24.8247C85.7621 24.8614 85.8391 24.9164 85.9018 24.9857C85.9707 25.0488 86.0253 25.1259 86.062 25.2118C86.0987 25.2977 86.1166 25.3905 86.1145 25.4839V33.8914C87.6527 31.6715 89.7492 30.5616 92.4041 30.5616ZM92.4041 44.8363C93.2346 44.8459 94.0579 44.6824 94.8218 44.3564C95.5856 44.0304 96.2733 43.549 96.8409 42.9427C98.0265 41.73 98.6903 40.1014 98.6903 38.4054C98.6903 36.7094 98.0265 35.0808 96.8409 33.8681C96.265 33.2704 95.5745 32.7949 94.8107 32.4701C94.0469 32.1454 93.2254 31.978 92.3954 31.978C91.5653 31.978 90.7439 32.1454 89.98 32.4701C89.2162 32.7949 88.5257 33.2704 87.9498 33.8681C86.7724 35.0851 86.1142 36.7121 86.1142 38.4054C86.1142 40.0987 86.7724 41.7257 87.9498 42.9427C88.5204 43.5499 89.2111 44.0318 89.9779 44.3577C90.7447 44.6837 91.5709 44.8467 92.4041 44.8363Z" fill="#D6E6F3"/>
<path d="M114.609 30.6052C114.701 30.606 114.792 30.625 114.877 30.6612C114.963 30.6974 115.04 30.75 115.104 30.816C115.169 30.8821 115.22 30.9602 115.254 31.046C115.289 31.1319 115.306 31.2236 115.305 31.3161V45.5704C115.308 45.6626 115.292 45.7544 115.258 45.8401C115.224 45.9259 115.172 46.0038 115.107 46.069C115.042 46.1342 114.964 46.1854 114.878 46.2194C114.793 46.2534 114.701 46.2695 114.609 46.2666C114.418 46.2701 114.234 46.199 114.096 46.0685C113.966 45.9352 113.895 45.7561 113.898 45.5704V43.2223C112.538 45.2538 110.746 46.2686 108.52 46.2666C106.64 46.2666 105.042 45.5034 103.725 43.9769C102.396 42.4435 101.687 40.47 101.735 38.4418V31.2724C101.735 31.1792 101.753 31.0869 101.79 31.0013C101.826 30.9156 101.88 30.8383 101.948 30.7742C102.012 30.7071 102.09 30.6536 102.175 30.6171C102.261 30.5806 102.353 30.5618 102.446 30.5618C102.539 30.5618 102.631 30.5806 102.717 30.6171C102.802 30.6536 102.88 30.7071 102.944 30.7742C103.012 30.8383 103.065 30.9156 103.102 31.0013C103.139 31.0869 103.157 31.1792 103.157 31.2724V38.4418C103.113 40.092 103.675 41.7011 104.736 42.966C105.779 44.2284 107.041 44.8586 108.523 44.8566C110.005 44.8547 111.267 44.2245 112.31 42.966C113.371 41.7011 113.932 40.092 113.889 38.4418V31.3161C113.886 31.2239 113.902 31.1321 113.936 31.0464C113.97 30.9607 114.022 30.8829 114.087 30.8179C114.154 30.7481 114.236 30.6931 114.325 30.6565C114.415 30.6199 114.512 30.6024 114.609 30.6052Z" fill="#D6E6F3"/>
<path d="M125.888 30.5616C126.906 30.5482 127.916 30.7461 128.854 31.1428C129.791 31.5394 130.637 32.1261 131.336 32.8659C132.777 34.3537 133.582 36.3433 133.582 38.4141C133.582 40.4849 132.777 42.4745 131.336 43.9623C130.637 44.7021 129.791 45.2888 128.854 45.6854C127.916 46.0821 126.906 46.28 125.888 46.2667C123.232 46.2667 121.136 45.1616 119.602 42.9514V45.5558C119.602 45.6492 119.583 45.7415 119.545 45.8272C119.508 45.9129 119.454 45.99 119.386 46.054C119.322 46.121 119.245 46.1744 119.16 46.2109C119.074 46.2473 118.982 46.2661 118.889 46.2661C118.797 46.2661 118.705 46.2473 118.619 46.2109C118.534 46.1744 118.457 46.121 118.393 46.054C118.325 45.99 118.271 45.9129 118.234 45.8272C118.196 45.7415 118.177 45.6492 118.177 45.5558V25.4838C118.176 25.3903 118.194 25.2974 118.231 25.2115C118.268 25.1256 118.324 25.0486 118.393 24.9857C118.457 24.9186 118.534 24.8653 118.619 24.8288C118.705 24.7923 118.797 24.7735 118.889 24.7735C118.982 24.7735 119.074 24.7923 119.16 24.8288C119.245 24.8653 119.322 24.9186 119.386 24.9857C119.455 25.0486 119.511 25.1256 119.548 25.2115C119.585 25.2974 119.603 25.3903 119.602 25.4838V33.8914C121.138 31.6715 123.234 30.5616 125.888 30.5616ZM125.888 44.8363C126.719 44.8458 127.542 44.6824 128.306 44.3564C129.07 44.0304 129.758 43.5489 130.325 42.9427C131.511 41.73 132.175 40.1013 132.175 38.4054C132.175 36.7094 131.511 35.0808 130.325 33.8681C129.749 33.2703 129.059 32.7949 128.295 32.4701C127.531 32.1453 126.71 31.978 125.88 31.978C125.05 31.978 124.228 32.1453 123.464 32.4701C122.701 32.7949 122.01 33.2703 121.434 33.8681C120.259 35.0861 119.602 36.7127 119.602 38.4054C119.602 40.098 120.259 41.7246 121.434 42.9427C122.005 43.5498 122.695 44.0317 123.462 44.3577C124.229 44.6837 125.055 44.8467 125.888 44.8363Z" fill="#D6E6F3"/>
<path d="M149.573 30.5616C149.666 30.5618 149.758 30.5807 149.844 30.6173C149.929 30.6538 150.006 30.7072 150.071 30.7743C150.199 30.9083 150.27 31.0869 150.269 31.2724V45.5471C150.27 45.7326 150.199 45.9113 150.071 46.0453C150.006 46.1124 149.929 46.1658 149.844 46.2023C149.758 46.2388 149.666 46.2578 149.573 46.258C149.479 46.2591 149.386 46.2416 149.299 46.2062C149.213 46.1709 149.134 46.1186 149.068 46.0524C149.001 45.9861 148.949 45.9073 148.914 45.8205C148.878 45.7338 148.861 45.6408 148.862 45.5471V42.9427C147.308 45.1548 145.212 46.2599 142.572 46.258C141.554 46.2713 140.545 46.0734 139.607 45.6767C138.669 45.2801 137.824 44.6934 137.125 43.9536C135.675 42.4705 134.864 40.4791 134.864 38.4054C134.864 36.3317 135.675 34.3404 137.125 32.8572C137.824 32.1174 138.669 31.5307 139.607 31.1341C140.545 30.7375 141.554 30.5396 142.572 30.5529C145.221 30.5529 147.318 31.6628 148.862 33.8827V31.2608C148.861 31.1671 148.878 31.0741 148.914 30.9874C148.949 30.9006 149.001 30.8218 149.068 30.7555C149.134 30.6893 149.213 30.637 149.299 30.6017C149.386 30.5664 149.479 30.5488 149.573 30.55V30.5616ZM142.581 44.8363C143.412 44.8477 144.237 44.6851 145.001 44.359C145.766 44.0329 146.454 43.5505 147.021 42.9427C148.206 41.73 148.87 40.1014 148.87 38.4054C148.87 36.7094 148.206 35.0808 147.021 33.8681C146.445 33.2704 145.755 32.7949 144.991 32.4701C144.227 32.1454 143.405 31.978 142.575 31.978C141.745 31.978 140.924 32.1454 140.16 32.4701C139.396 32.7949 138.706 33.2704 138.13 33.8681C136.952 35.0851 136.294 36.7121 136.294 38.4054C136.294 40.0987 136.952 41.7257 138.13 42.9427C138.699 43.5487 139.388 44.0299 140.152 44.3559C140.917 44.6818 141.741 44.8454 142.572 44.8363H142.581Z" fill="#D6E6F3"/>
<path d="M119.689 49.7421V52.1659H119.206V49.7421H118.305V49.308H120.595V49.7421H119.689Z" fill="#D6E6F3"/>
<path d="M123.036 49.7421V50.5112H124.432V50.954H123.036V51.7406H124.645V52.1747H122.556V49.3168H124.595V49.7509L123.036 49.7421Z" fill="#D6E6F3"/>
<path d="M129.14 49.7363L128.848 50.08C128.747 49.9689 128.624 49.8793 128.488 49.8168C128.351 49.7542 128.203 49.7199 128.053 49.7159C127.916 49.7085 127.779 49.7291 127.651 49.7764C127.522 49.8236 127.405 49.8966 127.305 49.9907C127.206 50.0849 127.127 50.1984 127.073 50.3242C127.019 50.45 126.991 50.5855 126.991 50.7224C126.991 50.8593 127.019 50.9948 127.073 51.1206C127.127 51.2464 127.206 51.3598 127.305 51.454C127.405 51.5482 127.522 51.6212 127.651 51.6684C127.779 51.7157 127.916 51.7363 128.053 51.7289C128.352 51.7216 128.637 51.5995 128.848 51.3881L129.14 51.7056C128.846 51.9996 128.451 52.1687 128.036 52.1775C127.83 52.2026 127.622 52.1836 127.425 52.122C127.227 52.0603 127.045 51.9573 126.891 51.8198C126.736 51.6823 126.613 51.5135 126.529 51.3246C126.444 51.1358 126.401 50.9311 126.402 50.7243C126.404 50.5175 126.449 50.3133 126.535 50.1253C126.621 49.9373 126.746 49.7697 126.902 49.6338C127.058 49.4979 127.241 49.3967 127.439 49.337C127.637 49.2774 127.845 49.2605 128.05 49.2876C128.458 49.2904 128.848 49.4512 129.14 49.7363Z" fill="#D6E6F3"/>
<path d="M133.169 52.1659V50.9802H131.654V52.1659H131.179V49.308H131.66V50.5491H133.174V49.308H133.655V52.1659H133.169Z" fill="#D6E6F3"/>
<path d="M140.545 52.1659V50.9802H139.045V52.1659H138.549V49.308H139.045V50.5491H140.556V49.308H141.04V52.1659H140.545Z" fill="#D6E6F3"/>
<path d="M145.745 50.9802C145.745 51.7289 145.276 52.1863 144.504 52.1863C143.732 52.1863 143.26 51.7289 143.26 50.9802V49.308H143.741V50.9802C143.732 51.0836 143.746 51.1876 143.781 51.2851C143.817 51.3825 143.873 51.4711 143.946 51.5446C144.019 51.6181 144.108 51.6747 144.205 51.7106C144.302 51.7464 144.406 51.7606 144.51 51.7522C144.612 51.7599 144.715 51.7451 144.812 51.7088C144.908 51.6725 144.995 51.6155 145.067 51.542C145.139 51.4684 145.194 51.38 145.228 51.283C145.262 51.1859 145.274 51.0826 145.264 50.9802V49.308H145.745V50.9802Z" fill="#D6E6F3"/>
<path d="M149.241 49.308C149.823 49.308 150.199 49.579 150.199 50.0218C150.206 50.1704 150.158 50.3164 150.067 50.4334C149.975 50.5504 149.844 50.6307 149.698 50.6598C149.873 50.6796 150.034 50.7654 150.147 50.8996C150.261 51.0339 150.319 51.2065 150.31 51.3822C150.31 51.8717 149.914 52.1659 149.27 52.1659H148V49.308H149.241ZM148.483 50.4908H149.217C149.523 50.4908 149.707 50.3481 149.707 50.1092C149.707 49.8703 149.523 49.7363 149.217 49.7363H148.483V50.4908ZM148.483 51.7377H149.217C149.593 51.7377 149.818 51.5891 149.818 51.3211C149.818 51.0531 149.593 50.9161 149.217 50.9161H148.483V51.7377Z" fill="#D6E6F3"/>
</svg>
