<svg width="48" height="48" viewBox="0 0 48 48" fill="none" xmlns="http://www.w3.org/2000/svg">
<path d="M43.7812 6.09375H41.8125V4.21875C41.8125 1.89253 39.92 0 37.5938 0H4.21875C1.89253 0 0 1.89253 0 4.21875V27C0 29.3262 1.89253 31.2188 4.21875 31.2188H6.1875V33.0938C6.1875 35.42 8.08003 37.3125 10.4062 37.3125H24.8739C26.3647 42.2039 30.2743 46.3936 35.7074 47.9459C35.9594 48.0179 36.2272 48.0182 36.4801 47.9459C43.2224 46.0195 48 39.8538 48 32.6737C48 31.757 48 11.3449 48 10.3125C48 7.98628 46.1075 6.09375 43.7812 6.09375ZM45.1875 10.3125V14.3438H25.4062V12.75C25.4062 11.9734 24.7766 11.3438 24 11.3438H13.5C12.7234 11.3438 12.0938 11.9734 12.0938 12.75V14.3438H9V10.3125C9 9.53709 9.63084 8.90625 10.4062 8.90625H43.7812C44.5567 8.90625 45.1875 9.53709 45.1875 10.3125ZM14.9062 14.1562H22.5938V17.3438H14.9062V14.1562ZM4.21875 28.4062C3.44334 28.4062 2.8125 27.7754 2.8125 27V4.21875C2.8125 3.44334 3.44334 2.8125 4.21875 2.8125H37.5938C38.3692 2.8125 39 3.44334 39 4.21875V6.09375H10.4062C8.08003 6.09375 6.1875 7.98628 6.1875 10.3125V28.4062H4.21875ZM10.4062 34.5C9.63084 34.5 9 33.8692 9 33.0938V17.1562H12.0938V18.75C12.0938 19.5266 12.7234 20.1562 13.5 20.1562H24C24.7766 20.1562 25.4062 19.5266 25.4062 18.75V17.1562H45.1875V23.3828C42.1891 23.1241 39.3187 21.9507 36.994 20.0135C36.4726 19.5789 35.715 19.5789 35.1936 20.0135C32.6239 22.1548 29.3353 23.4375 25.5938 23.4375C24.8171 23.4375 24.1875 24.0671 24.1875 24.8438V28.5938H22.5938C21.8171 28.5938 21.1875 29.2234 21.1875 30C21.1875 30.7766 21.8171 31.4062 22.5938 31.4062H24.1875C24.1875 32.7163 24.1669 33.4063 24.2913 34.5H10.4062ZM45.1875 32.6737C45.1875 38.3437 41.4681 43.4062 36.0938 45.1248C30.7194 43.4063 27 38.3438 27 32.6737V26.2043C30.2774 25.9669 33.4364 24.8111 36.0938 22.8757C38.7511 24.8111 41.9101 25.9669 45.1875 26.2043V32.6737Z" fill="#FD6A00"/>
</svg>
